<svg xmlns="http://www.w3.org/2000/svg" viewBox="0 0 44.17 53.78"><defs><style>.cls-1{fill:#ec1651;fill-rule:evenodd;}</style></defs><title>jejak</title><g id="Layer_2" data-name="Layer 2"><g id="Layer_1-2" data-name="Layer 1"><path class="cls-1" d="M5.41,0C9.52,6.83,19.49,3,22.2,11.23c1.67,4.73.31,9.65,3.64,9.63,1.61-.06,2-2.33,5.34-3.32,1.28-1.79,3.11-2.93,5.8-1.76,2.86-.4,4.78-.68,7.19.16a16.29,16.29,0,0,0-8,2.82c-3.06,2.42-2.26,6-6.88,8.32.41,5.25,9.62,2.63,11,10.94.61,3.23-1.76,9.95.38,15.76-11.58-9-5-12.17-9.17-13.85-4.87-1.28-6.89-3.87-7.09-7.95-3,1-3.36-.82-7.26.62-5.69,2.07-4.07,3.92-11.59,5.53a14.53,14.53,0,0,1,2.81-2.29A29.23,29.23,0,0,1,0,34.91c15-1,12.1-6.27,18.45-9.49-6.28-3.93-1.79-8.86-6.26-11.47C9.2,12.31,4.61,10.56,5.41,0Z"/></g></g></svg>